<svg width="14" height="14" viewBox="0 0 14 14" fill="none" xmlns="http://www.w3.org/2000/svg">
<g clip-path="url(#clip0_74_1964)">
<path d="M11.79 5.61429C11.79 9.54429 6.73712 12.9129 6.73712 12.9129C6.73712 12.9129 1.68427 9.54429 1.68427 5.61429C1.68427 4.27419 2.21662 2.98897 3.16421 2.04138C4.11181 1.09378 5.39702 0.561432 6.73712 0.561432C8.07722 0.561432 9.36244 1.09378 10.31 2.04138C11.2576 2.98897 11.79 4.27419 11.79 5.61429Z" stroke="#9E9E9E" stroke-width="1.12286" stroke-linecap="round" stroke-linejoin="round"/>
<path d="M6.73714 7.29857C7.66735 7.29857 8.42143 6.54449 8.42143 5.61429C8.42143 4.68408 7.66735 3.93 6.73714 3.93C5.80694 3.93 5.05286 4.68408 5.05286 5.61429C5.05286 6.54449 5.80694 7.29857 6.73714 7.29857Z" stroke="#9E9E9E" stroke-width="1.12286" stroke-linecap="round" stroke-linejoin="round"/>
</g>
<defs>
<clipPath id="clip0_74_1964">
<rect width="13.4743" height="13.4743" fill="white"/>
</clipPath>
</defs>
</svg>
